<svg xmlns="http://www.w3.org/2000/svg"><symbol id="sweater" viewBox="0 0 64 64"><path d="M8.57 60.49a.5.5 0 0 1-.48-.36 33.69 33.69 0 0 1-1-5 .68.68 0 0 1 0-.14c-.86-7 0-15.75 2.47-26.26C11.49 17.46 14.28 11 18 9.13a36.22 36.22 0 0 0 6.34-4.49 2.84 2.84 0 0 1 2-1.08.51.51 0 0 1 .3 0 5.54 5.54 0 0 1 2 .71 8.75 8.75 0 0 0 4.09.65c1.16 0 3.26-1.22 4.53-1.39h.16c1.95.26 2.06 1.39 3.46 2.3a.51.51 0 0 1 .27.2A47.71 47.71 0 0 0 46 9.11c3.77 1.9 6.55 8.33 8.52 19.68C57 39.27 57.8 48.07 56.94 55a.59.59 0 0 1 0 .14 33.42 33.42 0 0 1-1 5 .5.5 0 0 1-.82.22C53.75 59.1 51.94 59 49.57 60a.5.5 0 0 1-.7-.48c.17-5.78-.5-12.58-2.12-21.41.18 3 .28 5.95.29 8.94v.1c0 2 0 3.91-.1 5.88a.51.51 0 0 1-.53.48 68.4 68.4 0 0 0-14.41.8 72.63 72.63 0 0 0-14.45-.79.51.51 0 0 1-.53-.49c-.07-2-.1-3.93-.1-5.89v-.07q0-4.47.29-8.9a106.15 106.15 0 0 0-2.12 21.36.5.5 0 0 1-.7.48c-2.37-1-4.18-.89-5.52.34a.48.48 0 0 1-.3.14zm-.45-5.07a32.93 32.93 0 0 0 .73 3.71 5.71 5.71 0 0 1 5.26-.31v-3.36c-1.05-.73-3.11-.74-5.99-.04zm44.32 2.9a4.79 4.79 0 0 1 2.71.79 32.93 32.93 0 0 0 .73-3.71c-2.9-.7-4.93-.68-6 0v3.37a7.71 7.71 0 0 1 2.56-.45zM18.5 10c-3.42 1.71-6.11 8.09-8 19C8.09 39.15 7.25 47.67 8 54.42c2.8-.66 4.84-.68 6.2-.07.42-8.58 2.26-17.91 3.93-25.45.16-1.25.33-2.5.52-3.74a.51.51 0 0 1 .57-.42.5.5 0 0 1 .42.57A147.14 147.14 0 0 0 18 46.62c2.91.08 5.43.16 7.54.24-.45-11.54-1-22.66-1.61-33.08a.49.49 0 0 1 .46-.53.5.5 0 0 1 .53.47c.63 10.45 1.17 21.61 1.62 33.18l2.07.08c-1.12-15.68-1.5-26.77-1.13-33a.52.52 0 0 1 .53-.47.5.5 0 0 1 .47.53c-.37 6.17 0 17.26 1.14 33 .92 0 1.68.09 2.29.13s1.5-.1 2.56-.15c1.12-15.7 1.5-26.79 1.13-33a.5.5 0 0 1 .47-.53.52.52 0 0 1 .53.47c.37 6.2 0 17.29-1.13 33l2.07-.08c.45-11.57 1-22.73 1.62-33.18a.5.5 0 0 1 1 .06C39.49 24.18 39 35.31 38.5 46.84c2.11-.08 4.63-.16 7.54-.24a145.74 145.74 0 0 0-1.68-21.31.5.5 0 0 1 .42-.57.51.51 0 0 1 .57.42c.18 1.18.35 2.36.5 3.54 2.36 10.71 3.63 18.88 4 25.64 1.36-.6 3.4-.58 6.19.08.75-6.74-.09-15.26-2.5-25.41-1.89-10.9-4.58-17.28-8-19-1.8-1.07-3.26-2-4.4-2.84A10.38 10.38 0 0 1 40 9.29a36.84 36.84 0 0 1 8.85 17.41.5.5 0 0 1-1 .21 35.78 35.78 0 0 0-8.55-16.83 10.34 10.34 0 0 1-7.46 3.4 9.57 9.57 0 0 1-7.23-3.39 33.73 33.73 0 0 0-8.48 16.84.5.5 0 0 1-1-.21c1.51-7 4.37-13 8.9-17.39a11.36 11.36 0 0 1-1.13-2.2A47.09 47.09 0 0 1 18.54 10zM21 52.42a68.22 68.22 0 0 1 11 .92 65.63 65.63 0 0 1 14-.87c0-1.62.08-3.25.08-4.87-6.2.19-9.35.26-13.7.53a32.49 32.49 0 0 1-3.33-.13c-2.59-.12-6.3-.25-11.09-.38 0 1.62 0 3.24.08 4.87.96-.05 1.96-.07 2.96-.07zM23.75 6.5c1.35 3.76 4 5.72 8.09 6a9.15 9.15 0 0 0 7-3.43 9.76 9.76 0 0 0 1.33-2.5c-1-.7-1.21-1.34-2.25-1.88a5.83 5.83 0 0 1-1 3.49.46.46 0 0 1-.18.23c-1.75 2.39-7.23 2.68-9.19.57A5.83 5.83 0 0 1 26 4.65a2.42 2.42 0 0 0-.95.69c-.36.38-.81.76-1.3 1.16zm4.72 1.86c1.41 1.35 5.33 1.25 6.91 0a38 38 0 0 0-6.91 0zM27 4.63a5.73 5.73 0 0 0 .67 2.8 40 40 0 0 1 8.54 0A5 5 0 0 0 37 4.61a15.67 15.67 0 0 1-4 1.3 9.63 9.63 0 0 1-4.63-.73A6.51 6.51 0 0 0 27 4.63z"/></symbol><symbol id="jaket" viewBox="0 0 520 520"><circle cx="340.19" cy="100.72" r="5.75"/><circle cx="309.47" cy="149.02" r="5.75"/><circle cx="207.37" cy="149.02" r="5.75"/><circle cx="180.39" cy="100.72" r="5.75"/><path d="M128.19 224.27a3.41 3.41 0 0 0 4.08-2.66c3.88-18.42 5.06-42.8 3.52-72.48-1.14-22-3.45-38.94-3.48-39.11a3.45 3.45 0 0 0-6.83 1c.09.66 9 66.59 0 109.21a3.45 3.45 0 0 0 2.71 4.04zm-48.6-26.39a3.76 3.76 0 0 0 1 .14 3.45 3.45 0 0 0 3.31-2.46l.33-1.11a3.45 3.45 0 1 0-6.61-2l-.33 1.11a3.46 3.46 0 0 0 2.3 4.32z"/><path d="M460.48 269.6c-10.2-58.61-26.36-110.22-50.85-162.41a32.4 32.4 0 0 0-10.39-12.53c-22.56-16.16-49.81-28-54.44-30-28.28-29.61-42.13-30.51-44.22-30.45h-81.21c-2.5 0-16.32 1.29-44.17 30.44-4.48 1.9-31.84 13.84-54.43 30a32.22 32.22 0 0 0-10.4 12.53 623.47 623.47 0 0 0-25.5 62.75 3.46 3.46 0 0 0 2.13 4.4 3.38 3.38 0 0 0 1.12.19 3.45 3.45 0 0 0 3.27-2.33 617.94 617.94 0 0 1 25.22-62.07 25.3 25.3 0 0 1 8.17-9.85c15.22-10.92 32.78-19.86 43.55-24.94-4.21 8.8-8.88 23.55-8.43 45.21a3.42 3.42 0 0 0 1.46 2.74 3.46 3.46 0 0 0 3.07.46c.1 0 9.76-3.19 21.89-5.79l3.91 26.18-.31.35a9.59 9.59 0 0 0-2.11 8.36 9.71 9.71 0 0 0 4.69 6.43l40.92 274.07h-74.3c-5.5-24.66-10.34-47.19-14.46-67.25l18.25-72.86a3.45 3.45 0 1 0-6.69-1.68l-14.75 58.85c-10.13-50.77-14.88-82.79-13.07-89.51a3.45 3.45 0 1 0-6.67-1.79c-3.89 14.49 14.84 105 31.25 178.38v.06c2.89 12.89 5.16 22.84 6.29 27.71l-34.87 8.84c-4-12.43-19.22-59.77-25.11-85.3a3.45 3.45 0 1 0-6.72 1.55c5.88 25.5 20.87 72.3 25.12 85.44l-9.8 2.49c-14.84-34.75-26.53-74.55-35.73-121.54-5.66-29-11-56.35-5.86-85.94 3.18-18.26 7-36.15 11.43-53.16a3.45 3.45 0 1 0-6.68-1.73c-4.46 17.19-8.34 35.26-11.55 53.7-5.36 30.85.36 60.13 5.89 88.45 9.53 48.71 21.74 89.82 37.33 125.66a3.47 3.47 0 0 0 3.17 2.08 3.61 3.61 0 0 0 .85-.11l57.49-14.57a3.46 3.46 0 0 0 2.52-4.13c0-.11-2.48-10.66-6.09-26.75h111.65a3.45 3.45 0 1 0 0-6.89h-31.9L225.1 268.88a2.91 2.91 0 0 0 0-.31c-1.33-7.23-.51-16.52 2.41-27.59 27-44.39 78.33-71.62 99.2-81.29a9.72 9.72 0 0 0 5.48-6.85 9.57 9.57 0 0 0-2.12-8.36c-9-10.45-26-22.82-34.6-28.76 15.85-4.28 47.79 4 60.09 8a3.44 3.44 0 0 0 4.52-3.2c.46-21.7-4.2-36.44-8.41-45.22 10.77 5.07 28.34 14 43.59 25a25.41 25.41 0 0 1 8.16 9.85c24.23 51.62 40.21 102.67 50.31 160.67 5.15 29.59-.2 57-5.86 85.94-9.2 47-20.89 86.81-35.74 121.54l-9.79-2.48c4.25-13.14 19.24-60 25.13-85.45a3.45 3.45 0 1 0-6.72-1.55c-5.9 25.53-21.08 72.87-25.11 85.3l-34.88-8.84c1.12-4.87 3.4-14.82 6.28-27.71v-.06c5.65-25.32 10.74-48.89 15.11-70.12a3.37 3.37 0 0 0 .29-1.37c19.29-94.06 16.7-103.71 15.85-106.89a3.45 3.45 0 1 0-6.66 1.79c1.05 3.94.61 20.95-13 89.31l-14.69-58.65a3.45 3.45 0 0 0-6.7 1.68l18.21 72.66c-4.22 20.47-9.1 43.14-14.52 67.45h-41.4a3.45 3.45 0 1 0 0 6.89h39.86c-3.62 16.09-6.07 26.64-6.09 26.75a3.45 3.45 0 0 0 2.51 4.13l57.5 14.57a3.54 3.54 0 0 0 .85.11 3.47 3.47 0 0 0 3.16-2.08c15.6-35.83 27.81-76.93 37.34-125.66 5.48-28.35 11.2-57.63 5.82-88.48zM297.18 41.12c0 4-.23 11.31-.94 20.12h-72.52c-.72-8.81-.9-16.1-.95-20.12zm-1.58 27c-1.94 18.32-5.49 34-10.31 45.38-1.41 2.33-14 23.25-25.31 42.72-11.28-19.46-23.9-40.39-25.31-42.72-6-14.12-8.88-31.82-10.31-45.38zm-107.09 42.34c-9 1.77-17 4-21.72 5.34.43-29.56 11.12-43.73 12.75-45.72l.16-.14c19-20 30.78-26.11 36.18-28 .06 4.77.31 13.07 1.24 23 1.12 12.32 3.5 29.12 8.46 43.91-8.65-2.05-21.05-1.54-37.07 1.61zm36 5.28c-6.84 4.74-19 13.54-28.22 22.2l-3.18-21.32c13.64-2.43 24.44-2.73 31.39-.88zm-28.31 37.69a2.9 2.9 0 0 1-1.64-2 2.74 2.74 0 0 1 .6-2.41c.4-.46.82-.93 1.27-1.42 9.55-10.39 27.11-22.81 34.09-27.58 4.39 7.31 15.75 26.27 25.49 43.17-4.7 8.19-8.21 14.52-10.65 19.17A306.37 306.37 0 0 0 197 153.83zm24.8 85.22c-3.29 12.24-4.2 22.67-2.7 31l3.7 40.69-22-147.4a298.58 298.58 0 0 1 42.23 25.66c-.29.63-.53 1.21-.71 1.69-1.62 2.83-14.32 25.13-20.52 48.36zM324.81 149a2.74 2.74 0 0 1 .6 2.41 2.91 2.91 0 0 1-1.63 2A303.56 303.56 0 0 0 276 181.29c-16.11 11.55-29.65 23.87-40.52 36.81a242 242 0 0 1 12.14-24.59 3.88 3.88 0 0 0 .28-.58 43.44 43.44 0 0 1 1.87-4.14c2.45-4.95 7-13.24 13.6-24.66C273.26 147 285 127.43 289.45 120c7.29 5 26.17 18.33 35.36 29zm28.35-33.18c-5.08-1.49-13.91-3.9-23.72-5.72-15-2.8-26.77-3.18-35.05-1.16 4-11.92 6.85-26.6 8.44-43.8.93-10.06 1.18-18.42 1.25-23.2 5.33 1.85 17.13 7.94 36.18 28 .89 1 12.46 15 12.9 45.86z"/><path d="M391.57 107.08a3.44 3.44 0 0 0-3.89 2.94c0 .17-2.33 17.08-3.48 39.11-1.54 29.68-.36 54.06 3.52 72.48a3.46 3.46 0 0 0 3.37 2.74 3.53 3.53 0 0 0 .72-.08 3.44 3.44 0 0 0 2.66-4.09c-9-42.59-.05-108.55 0-109.21a3.44 3.44 0 0 0-2.9-3.89zm-95.1 326.26h-1.16a3.45 3.45 0 1 0 0 6.89h1.16a3.45 3.45 0 1 0 0-6.89zm59.22-266.5a3.45 3.45 0 0 0-4.85.54l-52.9 66.24a3.45 3.45 0 1 0 5.39 4.31l52.9-66.24a3.45 3.45 0 0 0-.54-4.85z"/></symbol><symbol id="short-round" viewBox="0 0 64 64"><path d="M60.25 21.81c-3.78-5.2-6.78-9.67-9.59-13.22a109.74 109.74 0 0 0-11.53-4.52L39 4c-.59-.13-1.23-.6-1.85-.5-3.44 2.09-6.68 2.17-9.88.23a.48.48 0 0 0-.27-.02 18.45 18.45 0 0 0-1.93.55h-.06A53.52 53.52 0 0 0 13.34 9.4a131 131 0 0 1-9.57 13.39.51.51 0 0 0 .24.8c4.32 1.29 7.46 3.38 9.34 6.21a.4.4 0 0 0 .15.14l.13.05a.52.52 0 0 0 .42-.08 10.09 10.09 0 0 1 2.57-1.38 36.53 36.53 0 0 1-.27 3.83c-.13 10.68-.33 19.76-.59 27a.49.49 0 0 0 .56.51 93.48 93.48 0 0 1 16-.09 60.7 60.7 0 0 1 16.85.71.49.49 0 0 0 .37-.09.51.51 0 0 0 .2-.36c.45-5.13.17-13-.82-23.35q-.27-4.15-.16-8.52l1.68.63a.51.51 0 0 0 .55-.13 29.33 29.33 0 0 1 9-6.12.51.51 0 0 0 .26-.74zM37 4.82c.53 6.82-9.2 6.48-9.46.23A9.7 9.7 0 0 0 37 4.82zm-10.47.06c0 7.33 11.88 8.59 11.47-.16l.47.16c-.06 4.05-2.09 6.22-6.22 6.63C28.6 11.12 26.49 9 25.8 5.1zm24.01 22.87l-1.69-.63c.11-3.19.37-6.46.77-9.77a.5.5 0 0 0-1-.12c-.41 3.45-.67 6.85-.78 10.17v.09c-.09 3.17-.05 6.26.14 9.28 1 9.95 1.24 17.56.87 22.63a62.75 62.75 0 0 0-16.52-.61 97.45 97.45 0 0 0-15.54 0c.25-7.13.44-16 .57-26.36a38.55 38.55 0 0 0 .28-4.5v-.11a55.56 55.56 0 0 0-2.41-15.39.5.5 0 0 0-1 .28 54.69 54.69 0 0 1 2.4 14.79 10 10 0 0 0-2.73 1.33 17.28 17.28 0 0 0-8.9-6A130 130 0 0 0 14.12 10a60.1 60.1 0 0 1 10.72-4.6c.8 4.29 3.26 6.68 7.31 7.11h.12c4.58-.44 7-2.89 7.15-7.28a106.72 106.72 0 0 1 10.7 4.2c2.48 3.41 5.5 7.61 9 12.48a30.25 30.25 0 0 0-8.58 5.84z"/><path d="M12.59 15.19a21.72 21.72 0 0 1 1 11.56.5.5 0 0 0 1 .15 22.77 22.77 0 0 0-1-12.09.5.5 0 0 0-1 .38zm39.21 9.93a.5.5 0 0 0 .48-.64 37.49 37.49 0 0 1-.94-11.87.5.5 0 0 0-1 0 38.26 38.26 0 0 0 1 12.19.51.51 0 0 0 .46.32z"/></symbol><symbol id="short-sleeve" viewBox="0 0 64 64"><path d="M52.18 18.7A10 10 0 0 0 49 12.24a.61.61 0 0 0-.19-.17 11.18 11.18 0 0 0-2.53-1.62 28 28 0 0 1-7.14-2.93 5.73 5.73 0 0 0-1.73-3.11c-3.27-1.31-7.1-1.06-10.73-.3-.59.19-.44 1.24-.8 1.72a5.22 5.22 0 0 1-1.05 1.57c-.32.24-.64.45-1 .66h-.08a14.3 14.3 0 0 1-2.45 1.17C18 10.2 16 11.05 15.06 12c-.18.2-.36.41-.53.62a.53.53 0 0 0-.21.26c-2.43 3.24-3.1 7.81-3.43 14.78a.5.5 0 0 0 .28.47 12.76 12.76 0 0 0 7.48 1.18c.39 0 .45-.44.47-.76.44 5.8.28 15.71-.48 29.57a.5.5 0 0 0 .36.51 48.59 48.59 0 0 0 26.07.24.52.52 0 0 0 .38-.53c-.4-7.55-.56-12.82-.5-16.12A91.49 91.49 0 0 1 45 29a.52.52 0 0 0 .41.32 16.86 16.86 0 0 0 7.21-1.07.5.5 0 0 0 .33-.35c.34-1.3.05-4.33-.77-9.2zM37.66 6.32a10 10 0 0 1 .6 1.7.75.75 0 0 0 .07.12 1.47 1.47 0 0 0 .4.29 11.22 11.22 0 0 1-1.29 4.81c-.6-.4-1.48-1.05-2.67-1.94 1.57-1.3 2.88-2.89 2.89-4.98zm-5.87 7.57a14.63 14.63 0 0 1-1.42-3 .49.49 0 0 0-.51-.34h-.8a11.77 11.77 0 0 1-2-3.14C31.82 7 35 7 36.5 7.41a7.83 7.83 0 0 1-2.87 3.53.61.61 0 0 0-.12.16 21 21 0 0 1-1.72 2.79zm.49 1v6.35h-1v-6.3a.58.58 0 0 0 .46.31c.26.01.4-.19.54-.37zM26.84 6.2a6.83 6.83 0 0 0 .4-1.2 19.92 19.92 0 0 1 9.25.05 4.65 4.65 0 0 1 .18 1.35c-1.74-.46-5-.44-9.84.06a2.53 2.53 0 0 1 .01-.26zm-1.36 2a6.53 6.53 0 0 0 .52-.67 11.46 11.46 0 0 0 2.19 3.63 8.91 8.91 0 0 1-2 1.93c-.23-.23-.78-1.1-1.56-4.35a9.26 9.26 0 0 0 .85-.59zm-7.34 20.13a11.75 11.75 0 0 1-6.23-1c.3-6.23.9-10.43 2.87-13.4a37 37 0 0 1 3.89 10.92c-.21 1.31-.38 2.47-.53 3.48zm26.51-3.22c-.87 3.52-1.11 9.28-.7 17.09-.06 3.23.1 8.39.48 15.76a47.51 47.51 0 0 1-24.77-.22c.93-17.18.93-28.28 0-33a37.57 37.57 0 0 0-4.24-11.67c.11-.14.23-.27.35-.41.8-.74 2.79-1.58 5.84-2.46a17.54 17.54 0 0 0 2.11-.92c1.05 4.24 1.82 4.87 2.5 4.9a8 8 0 0 0 2.91-2.57h.41a15.23 15.23 0 0 0 .72 1.65v8.5a.5.5 0 0 0 .5.5h2a.5.5 0 0 0 .5-.5v-8.27c.28-.43.56-.9.84-1.42 1.59 1.19 2.65 1.95 3.25 2.32a.48.48 0 0 0 .39 0 .49.49 0 0 0 .31-.24A12.9 12.9 0 0 0 39.7 9a34.25 34.25 0 0 0 6.24 2.38 10.11 10.11 0 0 1 2 1.23c-1.24 1.93-2.31 6.03-3.29 12.5zM52 27.44a16.13 16.13 0 0 1-6.11 1c-.17-1.25-.26-2.29-.29-3.16.92-6.1 2-10.11 3-11.95a9.11 9.11 0 0 1 2.49 5.53 1.52 1.52 0 0 0 .09.49c.82 4.07 1.06 6.8.82 8.09z"/></symbol><symbol id="plain-shirt" viewBox="0 0 64 64"><path d="M55.19 39.84A139.87 139.87 0 0 0 50 9.31c-4.66-2.08-8.86-3.88-12.18-5.54a23.32 23.32 0 0 1-11.38-.27h-.12c-.55.21-1.12.43-1.69.67h-.05c-3 1.25-6.39 2.84-10 4.75a.5.5 0 0 0-.25.3c-.82 2.72-2.14 8-4 15.72-1.71 9.06-2.6 20.62-2.6 34.49a.5.5 0 0 0 .44.5c2.48.27 5 .46 7.43.57a.47.47 0 0 0 .17 0 .41.41 0 0 0 .2-.12.64.64 0 0 0 .11-.16.51.51 0 0 0 0-.17c0-1.56.27-4.32.74-8.3a70.08 70.08 0 0 0 .37 7.46.51.51 0 0 0 .52.43 272.29 272.29 0 0 1 29.39.3.5.5 0 0 0 .53-.54q-.42-5-.5-8.93c.28 3.05.6 6.15.95 9.27a.52.52 0 0 0 .2.34.48.48 0 0 0 .38.09A30.58 30.58 0 0 1 55.6 60a.5.5 0 0 0 .37-.13c.8-6.87.03-13.87-.78-20.03zm-17.9-35v.33a18.26 18.26 0 0 1-10 .08c-.06-.17-.1-.35-.15-.54a23 23 0 0 0 10.15.14zm0 1.38C37 8 35.75 9.05 33.62 9.52c-2.91-.13-4.84-1.16-5.86-3.1a19.22 19.22 0 0 0 9.48-.19zM26.12 4.69c.71 3.71 3.38 5.75 7.66 5.82 2.87-.62 4.42-2.29 4.53-4.89V5.1l.77.38c-.95 3.55-2.79 5.28-5.62 5.3-4 .36-6.62-1.54-8-5.82zm29 54.24a31.58 31.58 0 0 0-6.1.15c-.64-5.68-1.17-11.31-1.57-16.72-.27-8.2-.09-17.36.52-27.22A.5.5 0 0 0 47 15c-.62 9.86-.8 19-.53 27.25-.5 3.73-.46 9.31.13 16.6-3.85-.23-7.69-.39-11.46-.47A67.5 67.5 0 0 1 33 41.68a.5.5 0 0 0-1 0 68.17 68.17 0 0 0 2.12 16.71c-5.56-.1-10.94 0-16 .2-.28-2.47-.38-7.44-.3-14.76 1.68-8.27 1.55-18.48-.39-30.33a.5.5 0 0 0-1 .16c1.92 11.75 2.05 21.84.39 30-1.07 7.92-1.65 13.14-1.74 15.81-2.12-.1-4.28-.27-6.41-.49 0-13.62.9-25 2.61-33.78 1.76-7.49 3.06-12.68 3.88-15.44 3.4-1.76 6.5-3.22 9.32-4.4 1.57 4.66 4.61 6.83 9 6.42 3.22 0 5.4-2 6.49-5.86 2.7 1.28 5.78 2.64 9.23 4.08a144.44 144.44 0 0 1 5 29.94 94.48 94.48 0 0 1 .96 18.99z"/><path d="M13.91 28.45a.49.49 0 0 0-.61.35 39.49 39.49 0 0 0-.62 18.44.5.5 0 0 0 .49.4.5.5 0 0 0 .49-.6 38.47 38.47 0 0 1 .6-18 .5.5 0 0 0-.35-.59zm37.44 3.02a.5.5 0 0 0-.43.56 77.41 77.41 0 0 1 .26 19.73.5.5 0 0 0 1 .13 78 78 0 0 0-.26-20 .49.49 0 0 0-.57-.42zm-7.51-8.14a.5.5 0 0 0-1-.24c-.86 3.43-.86 9.21 0 17.17a.5.5 0 0 0 1-.11c-.84-7.84-.84-13.5 0-16.82zm-7.1 4.88a.49.49 0 0 0-.53-.47.5.5 0 0 0-.47.53 35.68 35.68 0 0 0 2.64 11.26.5.5 0 0 0 .93-.38 34.5 34.5 0 0 1-2.57-10.94zm-12.67-4.06a.5.5 0 0 0-.42-.57.52.52 0 0 0-.57.42 63.08 63.08 0 0 0 .09 20.37.51.51 0 0 0 .5.41.5.5 0 0 0 .49-.59 61.61 61.61 0 0 1-.09-20.04z"/></symbol><symbol id="cap" viewBox="0 0 150 150"><style>.st0{fill:#fff}.st1{fill:none;stroke:#000;stroke-width:3;stroke-linecap:round;stroke-linejoin:round;stroke-miterlimit:10}.st2{fill:url(#SVGID_1_)}.st3{fill:url(#SVGID_2_)}.st4{fill:url(#SVGID_3_)}.st5{fill:url(#SVGID_4_)}.st6{fill:url(#SVGID_5_)}.st7{fill:url(#SVGID_6_)}.st8{fill:url(#SVGID_7_)}.st9{fill:url(#SVGID_8_)}.st10{fill:url(#SVGID_9_)}.st11{fill:url(#SVGID_10_)}.st12{fill:url(#SVGID_11_)}.st13{fill:url(#SVGID_12_)}.st14{fill:url(#SVGID_13_)}.st15{fill:url(#SVGID_14_)}.st16{fill:url(#SVGID_15_)}.st17{fill:url(#SVGID_16_)}.st18{fill:url(#SVGID_17_)}.st19{fill:url(#SVGID_18_)}.st20{fill:#63be6e}.st21{fill:#e53357}.st22{fill:#5955a2}.st23{fill:#92870b}.st24{fill:#edc21d}.st25{fill:#007837}.st26{fill:#ec694b}.st27{fill:#3d64a9}.st28{fill:#9a782e}.st29{fill:#a8b436}.st30{fill:#f7f7f7}.st31{fill:url(#SVGID_19_)}.st32{fill:url(#SVGID_20_)}.st33{fill:url(#SVGID_21_)}.st34{fill:url(#SVGID_22_)}.st35{fill:url(#SVGID_23_)}.st36{fill:url(#SVGID_24_)}.st37{fill:url(#SVGID_25_)}.st38{fill:url(#SVGID_26_)}.st39{fill:url(#SVGID_27_)}.st40{fill:url(#SVGID_28_)}.st41{fill:url(#SVGID_29_)}.st42{fill:url(#SVGID_30_)}.st43{fill:url(#SVGID_31_)}.st44{fill:url(#SVGID_32_)}.st45{fill:url(#SVGID_33_)}.st46{fill:url(#SVGID_34_)}.st47{fill:url(#SVGID_35_)}.st48{fill:url(#SVGID_36_)}.st49{fill:url(#SVGID_37_)}.st50{fill:url(#SVGID_38_)}.st51{fill:url(#SVGID_39_)}.st52{fill:url(#SVGID_40_)}.st53{fill:url(#SVGID_41_)}.st54{fill:url(#SVGID_42_)}.st55{fill:url(#SVGID_43_)}.st56{fill:url(#SVGID_44_)}.st57{fill:url(#SVGID_45_)}.st58{fill:url(#SVGID_46_)}.st59{fill:url(#SVGID_47_)}.st60{fill:url(#SVGID_48_)}.st61{fill:url(#SVGID_49_)}.st62{fill:url(#SVGID_50_)}.st63{fill:#0c509f}.st64{fill:url(#SVGID_51_)}.st65{fill:url(#SVGID_52_)}.st66{fill:url(#SVGID_53_)}.st67{fill:url(#SVGID_54_)}.st68{fill:url(#SVGID_55_)}.st69{fill:url(#SVGID_56_)}.st70{fill:url(#SVGID_57_)}.st71{fill:url(#SVGID_58_)}.st72{fill:url(#SVGID_59_)}.st73{fill:url(#SVGID_60_)}.st74{fill:url(#SVGID_61_)}.st75{fill:url(#SVGID_62_)}.st76{fill:url(#SVGID_63_)}.st77{fill:url(#SVGID_64_)}.st78{fill:url(#SVGID_65_)}.st79{fill:url(#SVGID_66_)}.st80{fill:url(#SVGID_67_)}.st81{fill:url(#SVGID_68_)}.st82{fill:url(#SVGID_69_)}.st83{fill:url(#SVGID_70_)}.st84{fill:url(#SVGID_71_)}.st85{fill:url(#SVGID_72_)}.st86{fill:url(#SVGID_73_)}.st87{fill:url(#SVGID_74_)}.st88{fill:url(#SVGID_75_)}.st89{fill:url(#SVGID_76_)}.st90{fill:url(#SVGID_77_)}.st91{fill:url(#SVGID_78_)}.st92{fill:url(#SVGID_79_)}.st93{fill:url(#SVGID_80_)}.st94{fill:url(#SVGID_81_)}.st95{fill:url(#SVGID_82_)}.st96{fill:url(#SVGID_83_)}.st97{fill:url(#SVGID_84_)}.st98{fill:url(#SVGID_85_)}.st99{fill:url(#SVGID_86_)}.st100{fill:url(#SVGID_87_)}.st101{fill:url(#SVGID_88_)}.st102{fill:url(#SVGID_89_)}.st103{fill:url(#SVGID_90_)}.st104{fill:url(#SVGID_91_)}.st105{fill:url(#SVGID_92_)}.st106{fill:url(#SVGID_93_)}.st107{fill:url(#SVGID_94_)}.st108{fill:url(#SVGID_95_)}.st109{fill:url(#SVGID_96_)}.st110{fill:url(#SVGID_97_)}.st111{fill:url(#SVGID_98_)}.st112{fill:url(#SVGID_99_)}.st113{fill:url(#SVGID_100_)}</style><path d="M-91.5-2510.1h677.6v5020.2H-91.5z" class="st0"/><path d="M18.5 100.4c-.3 0-.6-.1-.8-.2-.4-.3-.7-.8-.7-1.3V76c0-.6.8-11.7 8.5-23.3C32.3 42.5 46 30.1 72.6 28c2.1-.3 3.5-.2 3.7-.2.8 0 1.4.7 1.4 1.5s-.6 1.5-1.4 1.5c-1 0-1.9.1-2.9.2-4.1.5-12 2.4-19 9.4-10.8 10.6-15.9 28.7-15 53.8 0 .8-.5 1.4-1.3 1.5-12.3 1.6-18.9 4.6-19 4.6-.2.1-.4.1-.6.1zM58 33.5c-13.1 3.6-23.1 10.6-30 20.9-7.3 10.9-8 21.6-8 21.7v20.6c2.8-1 8.3-2.7 16.4-3.8-.7-25.3 4.7-43.7 15.9-54.8 1.9-1.8 3.8-3.4 5.7-4.6zm25.3 49.6H70.2c-3.5 0-6.3-2.8-6.3-6.3s2.8-6.3 6.3-6.3h13.1c3.5 0 6.3 2.8 6.3 6.3s-2.9 6.3-6.3 6.3zm-13.1-9.5c-1.8 0-3.3 1.5-3.3 3.3s1.5 3.3 3.3 3.3h13.1c1.8 0 3.3-1.5 3.3-3.3s-1.5-3.3-3.3-3.3H70.2z"/><path d="M127.9 116.9c-.3 0-.6 0-.9-.1-17.9-4-49.8-3.6-50.1-3.5h-.7c-.3 0-32.2-.4-50.1 3.5-1.4.3-2.8-.1-3.8-1.1s-1.4-2.4-1.1-3.7v-.1l5.5-16.3c.3-.8 1.1-1.2 1.9-.9.8.3 1.2 1.1.9 1.9l-5.4 16.3c-.1.5.2.8.3.9.1.1.5.4 1 .3 18.2-4 49.5-3.6 50.8-3.6h.6c1.3 0 32.5-.4 50.8 3.6.5.1.9-.2 1-.3.1-.1.4-.4.3-.9l-5.4-16.3c-.3-.8.2-1.6.9-1.9.8-.3 1.6.2 1.9.9l5.5 16.3v.1c.3 1.4-.1 2.8-1.1 3.7-.7.8-1.7 1.2-2.8 1.2z"/><path d="M134.6 100.4c-.2 0-.4 0-.6-.1-.1 0-6.7-3-19-4.6-.8-.1-1.3-.8-1.3-1.5.9-25.1-4.2-43.2-15-53.9-7-6.9-14.7-8.8-18.8-9.3-1-.1-2-.1-3-.2-.8 0-1.4-.7-1.4-1.5s.6-1.5 1.4-1.5c.2 0 1.5-.1 3.7.2 26.7 2.2 40.3 14.5 47.1 24.8 7.7 11.6 8.5 22.7 8.5 23.2v23c0 .5-.3 1-.7 1.3-.4.1-.6.1-.9.1zm-17.9-7.5c8.1 1.1 13.6 2.8 16.4 3.8V76s-.8-10.8-8.1-21.7c-6.9-10.3-16.9-17.2-30-20.8 1.9 1.3 3.8 2.8 5.7 4.7 11.3 11 16.7 29.5 16 54.7z"/><path d="M22.7 125c-2.8 0-5.4-1.1-7.4-3.2-2.3-2.4-3.3-5.6-2.8-8.9.8-4.5 2.3-9.4 4.6-14.6.2-.4.5-.7.9-.8.8-.3 20.9-7.4 58.2-7.1h.7c37-.2 57.4 6.8 58.2 7.1.4.1.7.4.9.8 2.3 5.2 3.8 10.1 4.6 14.6.5 3.3-.5 6.5-2.8 8.9-2.3 2.4-5.5 3.5-8.8 3.1-18.8-2.5-51.5-2.9-52.1-2.9h-.7c-.3 0-33.2.4-52.1 2.9-.5.1-.9.1-1.4.1zm-3.1-24.8c-2.1 4.8-3.4 9.2-4.1 13.3-.4 2.3.3 4.6 2 6.3 1.6 1.7 3.9 2.5 6.3 2.2 19.1-2.6 52.1-3 52.5-3h.7c.3 0 33.4.4 52.5 3 2.3.3 4.6-.5 6.3-2.2 1.6-1.7 2.4-4 2-6.3-.7-4.1-2.1-8.5-4.1-13.3-3.7-1.2-23.6-6.9-56.6-6.8h-.7c-33.5-.2-53.2 5.6-56.8 6.8zm63.5-69.5H70.8c-.8 0-1.5-.7-1.5-1.5V27c0-3.4 2.6-5.5 6.5-5.5h2.3c4 0 6.5 2.2 6.5 5.5v2.2c0 .9-.6 1.5-1.5 1.5zm-10.8-3h9.4V27c0-2.2-2.2-2.5-3.5-2.5h-2.3c-1.3 0-3.5.3-3.5 2.5v.7z"/></symbol><symbol id="suit-shirt" viewBox="0 0 64 64"><path d="M43.83 21.23a.5.5 0 0 0-.48-.36h-7.86a.51.51 0 0 0-.46.51v8.93a.5.5 0 0 0 .5.5h7.82a.5.5 0 0 0 .5-.5v-8.93a.26.26 0 0 0 0-.15zm-2.14.64l-2.31 1.52-2.23-1.52zm1.16 7.94H36v-7.49l3.07 2.09a.5.5 0 0 0 .56 0l3.19-2.11z"/><path d="M54.78 37.65c-1.3-6.3-3.59-15-6.79-25.92-.08-1.94-3.35-3.67-10.27-5.43a4.88 4.88 0 0 0-2.82-2.65 39.09 39.09 0 0 1-5.84-.15H29a2.9 2.9 0 0 0-1.33.56 4.5 4.5 0 0 0-1.15 1.39l-.9.39a93.73 93.73 0 0 0-8.58 4.18c-1.32 2.26-2 5.24-2.92 8.6-1.58 3.7-2.89 10.32-3.89 19.67A85.75 85.75 0 0 0 9.22 53a22.14 22.14 0 0 0 .21 3.54c.4.56 1.61 1.17 7.43 1.41a.49.49 0 0 0 .36-.14.49.49 0 0 0 .15-.35c0-3 .31-8.15 1-15.38 0 4.67-.4 9.34-.31 13.83 1.89 2.67 5.72 4.17 11.39 4.47l1.65.1h1.45c6 .15 11.17-1.27 13.58-4.08.32-1.53-.09-4.08 0-6.7 0 .69.08 1.36.13 2v.07c.09 1.52.18 3 .25 4.42a.52.52 0 0 0 .45.47c3.82.4 6.2 0 7.27-1.14.6-7 .43-13.36.53-17.85a.13.13 0 0 0 .02-.02zM36.89 6.86c.24 2.13-.53 4.36-2.29 6.65-.52-.54-.93-.95-1.24-1.26 2.16-1.57 3.16-3.41 3-5.43a.35.35 0 0 0 0-.18 5 5 0 0 0-.18-.92 5.26 5.26 0 0 1 .71 1.14zM29.07 4.5a38.29 38.29 0 0 0 5.58.16 6 6 0 0 1 .61 1.57c-2-.13-4.29-.18-6.53-.17-.09-.41-.18-.86-.26-1.34a1.89 1.89 0 0 1 .6-.22zm-1.82 1.62a4.45 4.45 0 0 1 .35-.58c.71 3.69 1.61 5.84 2.8 6.61a13.42 13.42 0 0 1-1.46 1.2 46 46 0 0 1-2.6-6.72c.3-.17.72-.2.91-.51zM16.38 56.9l-1.31-.07c-3.54-.24-4.49-.64-4.75-.82q-.06-1.3-.09-2.58c2.14 0 4.23.15 6.25.34-.06 1.23-.09 2.23-.1 3.13zm14.35 2.53l-1.16-.08c-5.25-.28-8.79-1.59-10.54-3.91.35-7.39.49-15 .4-22.68a110.67 110.67 0 0 0 0-16.58.5.5 0 1 0-1 .07 110.86 110.86 0 0 1 .05 16.39c-1 8.7-1.64 15.46-1.91 20.13-2-.19-4.16-.3-6.32-.34a83.76 83.76 0 0 1 .9-13.93C12.1 29.21 13.38 22.68 15 19a51.18 51.18 0 0 1 2.62-8.12c2.19-1.26 4.83-2.55 7.8-3.88a39.89 39.89 0 0 0 2.92 7.3.49.49 0 0 0 .71.16 18 18 0 0 0 1.68-1.29zm1.34 0h-.34V12.7h.34zm.35-47.78h-.76a.53.53 0 0 0-.36-.25c-.54-.09-1.48-.84-2.35-4.39 2.33 0 4.49.05 6.43.18 0 1.69-.98 3.17-2.96 4.51zm21 43.3c-.63.56-2.18 1.09-5.87.75q-.09-1.74-.21-3.57A24.68 24.68 0 0 1 53.5 52c-.03 1-.07 2-.11 3zm.14-4a25.38 25.38 0 0 0-6.28.14c-.36-5.71-.83-12-1.43-18.9-.29-6.18-.32-12-.08-17.32a.5.5 0 0 0-1 0c-.24 5.34-.21 11.2.08 17.4.2 11.44.36 19.16.49 23.57-2.3 2.43-6.44 3.6-12.24 3.61V13.37c.37.25 1 1.31 1.58 1.39a.51.51 0 0 0 .37-.18 10.88 10.88 0 0 0 2.91-7.2C45.77 9.43 47 11 47 11.8c3.13 10.85 5.53 19.73 6.81 26-.02 3.55-.1 7.99-.28 13.2z"/></symbol><symbol id="accessories" viewBox="0 0 64 64"><defs><style>.a105be9c-b355-4718-b469-a3dfcd51842f{fill:#231f20}</style></defs><path d="M14.297 30.31a17.058 17.058 0 0 0 16.538 13.067h2.307a17.264 17.264 0 0 0 16.953-15.07 2.833 2.833 0 0 0-.59-.268c-.308-23.556-34.729-23.71-35.032 0a2.864 2.864 0 0 0-.637.305c.052.336.411 1.663.461 1.966zm20.996 8.158c-.198 4.295-6.509 4.2-6.608-.093a3.304 3.304 0 1 1 6.608.093zM18.164 27.66a13.825 13.825 0 1 1 27.65.166h-27.65z" class="a105be9c-b355-4718-b469-a3dfcd51842f"/><path d="M51.581 30.31c-2.108 9.649-10.93 15.672-20.746 14.913a18.942 18.942 0 0 1-18.503-15.227 3.63 3.63 0 0 0-.342 1.55c-.023 4.99.016 13.457 0 18.42a3.72 3.72 0 0 0 3.72 3.72h32.567a3.72 3.72 0 0 0 3.72-3.72c.02-1.347-.015-10.404 0-11.498v-6.922a3.546 3.546 0 0 0-.351-1.56zm-8.749 19.675a.93.93 0 0 1-.747.388H21.892a.923.923 0 0 1 0-1.846h20.193a.925.925 0 0 1 .747 1.458zM5.511 40.313v5.925a2.956 2.956 0 0 0 2.954 2.953h1.68v-8.878c-.035-.007-4.633-.058-4.634 0zm-1.522-2.445v.6h6.155v-4.993H8.382a4.403 4.403 0 0 0-4.393 4.393zm49.853 2.445v8.878h1.68a2.948 2.948 0 0 0 2.944-2.953v-5.925c0-.067-4.604.003-4.624 0zm1.754-6.838h-1.754v4.993h6.147a4.475 4.475 0 0 0-4.393-4.993z" class="a105be9c-b355-4718-b469-a3dfcd51842f"/><path d="M31.989 36.917a1.458 1.458 0 0 0 0 2.917 1.458 1.458 0 0 0 0-2.917z" class="a105be9c-b355-4718-b469-a3dfcd51842f"/></symbol></svg>