<?xml version="1.0" encoding="UTF-8"?><svg id="layer" xmlns="http://www.w3.org/2000/svg" viewBox="0 0 245.69 61.99"><defs><style>.cls-1{fill:#fff;}</style></defs><g id="design"><g><g><path class="cls-1" d="M223,60.36c.43,0,.8,.37,.8,.8s-.37,.8-.8,.8-.8-.37-.8-.8,.37-.8,.8-.8Z"/><path class="cls-1" d="M227.71,51.87c.45,0,.82,.37,.82,.81s-.37,.81-.82,.81-.82-.37-.82-.81,.37-.81,.82-.81Zm.58,3.31v6.61h-1.16v-6.61h1.16Z"/><path class="cls-1" d="M231.68,55.19h1.16v.76c.21-.27,.8-.92,1.91-.92,.79,0,1.51,.32,1.91,.91,.34,.49,.38,1.03,.38,1.77v4.1h-1.16v-4.06c0-.4-.03-.86-.31-1.21-.22-.29-.58-.48-1.09-.48-.4,0-.83,.11-1.17,.51-.45,.52-.48,1.31-.48,1.78v3.46h-1.16v-6.61Z"/><path class="cls-1" d="M245.65,57.03c-.61-.76-1.49-.99-2.09-.99-1.24,0-2.36,.86-2.36,2.47s1.16,2.45,2.34,2.45c.69,0,1.54-.3,2.15-1.04v1.37c-.72,.52-1.49,.69-2.12,.69-2.07,0-3.56-1.47-3.56-3.46s1.51-3.51,3.56-3.51c1.06,0,1.75,.41,2.07,.64v1.37Z"/></g><path class="cls-1" d="M54.15,.03v-.03H0V61.8H54.15v-.03c4.56-.3,8.16-4.05,8.16-8.64V8.67C62.31,4.08,58.71,.33,54.15,.03Z"/><path class="cls-1" d="M138.04,8.1c-.3-4.52-4.08-8.1-8.71-8.1h-44.83c-4.63,0-8.41,3.58-8.71,8.1h-.03V61.8h62.31V8.1h-.03Z"/><path class="cls-1" d="M205.66,.03v-.03h-54.15V61.8h54.15v-.03c4.56-.3,8.16-4.05,8.16-8.64V8.67c0-4.59-3.61-8.34-8.16-8.64Z"/></g></g></svg>